PathFileType	4	(X/Y/Z)	D:\Share\Shared_Data\Ergonomics\Sit To Stand Pertubation\S0\Free STS.trc
DataRate	CameraRate	NumFrames	NumMarkers	Units	OrigDataRate	OrigDataStartFrame	OrigNumFrames	
100	100	14	18	m	100	2823	211
Frame#	Time	R_Toe			R_ASIS			R_Pelvis			V_Sacral			L_Pelvis			L_ASIS			Clavical			R_Acromium			L_Acromium			Sternum			Torso			R_Thigh_Med			R_Thigh_Lat			R_Thigh			R_Shank_Med			R_Shank_Lat			R_Shank			R_Heel			
		X1	Y1	Z1	X2	Y2	Z2	X3	Y3	Z3	X4	Y4	Z4	X5	Y5	Z5	X6	Y6	Z6	X7	Y7	Z7	X8	Y8	Z8	X9	Y9	Z9	X10	Y10	Z10	X11	Y11	Z11	X12	Y12	Z12	X13	Y13	Z13	X14	Y14	Z14	X15	Y15	Z15	X16	Y16	Z16	X17	Y17	Z17	X18	Y18	Z18	

2823	14.65	0.3767084	0.049389614	0.14291241	0.12192155	0.79286835	0.1571013	0.01024749	0.85047192	0.2046136	-0.11506513	0.88099017	-0.024248821	0.025199333	0.82671234	-0.20360902	0.13380591	0.76939038	-0.15325479	0.39983768	1.0404666	-0.0060056868	0.36882443	1.1400245	0.12487424	0.3621257	1.1482264	-0.14728674	0.36479425	0.95030475	-0.027062454	0.37510614	1.0044548	-0.1226776	0.33541028	0.48148624	0.076592598	0.32475302	0.50191873	0.21103035	0.29319965	0.64982257	0.12933925	0.25605048	0.09912162	0.10438855	0.19782047	0.088616249	0.19355835	0.26784094	0.30598004	0.21814267	0.15488414	0.044392097	0.14736221
2824	14.66	0.37664279	0.049335522	0.14260719	0.12468486	0.79580621	0.15713765	0.013372541	0.85437622	0.20473512	-0.11196349	0.8854549	-0.024070755	0.027975218	0.83046497	-0.20346053	0.1362883	0.77249908	-0.15308737	0.40232257	1.0452083	-0.0062199526	0.37119843	1.1446974	0.1246144	0.36442224	1.15292	-0.14747319	0.36713882	0.95499084	-0.027272644	0.37769849	1.0091748	-0.12278865	0.33531427	0.48150055	0.075645027	0.32518002	0.50209897	0.21006725	0.2948331	0.65025647	0.12863205	0.25589952	0.099069725	0.10418278	0.19783784	0.088670212	0.19348753	0.26798981	0.30612872	0.21763278	0.15480315	0.044373211	0.14745238
2825	14.67	0.37657318	0.049273487	0.14226947	0.12739222	0.79884796	0.15720372	0.01642894	0.85836194	0.20487357	-0.10891968	0.88996991	-0.023875486	0.030655468	0.83432758	-0.20332463	0.13867331	0.77574353	-0.15295822	0.4047204	1.0501235	-0.0064245105	0.37348425	1.1495468	0.12436524	0.36659814	1.1577826	-0.14765199	0.36950403	0.95985358	-0.027473419	0.38019611	1.0140627	-0.12288904	0.33514801	0.48155319	0.074654137	0.32554715	0.50229807	0.20905399	0.29641931	0.65071973	0.12786919	0.25572279	0.099017998	0.10397202	0.19785355	0.088722885	0.19341478	0.26810297	0.30628857	0.21709583	0.15470981	0.04434856	0.14754935
2826	14.68	0.37650186	0.049201706	0.14190401	0.13005269	0.80198608	0.15729469	0.019423271	0.8624115	0.20502892	-0.10592883	0.89452222	-0.023662033	0.03324913	0.83828918	-0.20319933	0.14097223	0.77911188	-0.15287032	0.40703143	1.0551997	-0.0066223969	0.37568423	1.1545557	0.12412779	0.3686543	1.1628015	-0.14782504	0.37188861	0.96487915	-0.027667114	0.38259454	1.0191061	-0.12298486	0.33492361	0.48164368	0.073633759	0.32585867	0.50250851	0.20800558	0.29796573	0.6512019	0.12706615	0.25552115	0.098966827	0.10375497	0.19786708	0.088774055	0.19334038	0.26818338	0.30645676	0.21653943	0.15460515	0.044318813	0.14765179
2827	14.69	0.37643112	0.049118484	0.14151675	0.13267445	0.80520764	0.15740536	0.022365767	0.86650562	0.20520081	-0.10298492	0.89909912	-0.023429281	0.035767231	0.84233832	-0.20308119	0.1431987	0.78258954	-0.15282329	0.40925671	1.0604265	-0.0068168344	0.37779803	1.1597097	0.12390297	0.37058893	1.1679661	-0.14799457	0.37427972	0.97005548	-0.02785603	0.38489084	1.0242946	-0.12308324	0.33464703	0.48176697	0.072597572	0.32611816	0.50272388	0.20693686	0.29948126	0.65169312	0.12623895	0.25529677	0.098916115	0.10353263	0.19787643	0.088824287	0.19326363	0.26823401	0.3066311	0.21597098	0.15449135	0.04428582	0.14775859
2828	14.7	0.37636307	0.049022919	0.14111441	0.13526331	0.80849512	0.15753145	0.02526885	0.8706261	0.20538879	-0.10008156	0.90368793	-0.023176287	0.038221325	0.84646259	-0.2029662	0.14536743	0.78616174	-0.15281306	0.41139783	1.0657957	-0.00701054	0.37982367	1.1649962	0.12369157	0.37239902	1.1732671	-0.14816302	0.37666156	0.97537238	-0.02804188	0.3870834	1.0296194	-0.1231914	0.33431482	0.48191113	0.071557594	0.32633002	0.50293988	0.20586124	0.30097449	0.6521853	0.12540308	0.25505367	0.09886557	0.10330872	0.19787932	0.08887442	0.19318407	0.26825717	0.30681042	0.21539771	0.15437152	0.044252041	0.14786926
2829	14.71	0.3762991	0.048915413	0.14070416	0.13782416	0.81182935	0.15766953	0.028145483	0.87475604	0.20559262	-0.097212341	0.90827576	-0.022902338	0.040622799	0.85064838	-0.2028511	0.14749358	0.78981476	-0.15283185	0.41345627	1.0713009	-0.0072052617	0.38175845	1.1704049	0.12349454	0.37408267	1.1786973	-0.14833284	0.37901529	0.9808208	-0.028225531	0.38917227	1.0350729	-0.12331564	0.33391461	0.48205692	0.070524025	0.32649997	0.50315326	0.20478944	0.30245297	0.65267279	0.12457236	0.25479739	0.098815041	0.10308837	0.19787492	0.088924683	0.19310321	0.26825455	0.30699417	0.21482697	0.15424908	0.044219772	0.14798398
2830	14.72	0.37623975	0.048797722	0.14029359	0.14036273	0.81519312	0.15781615	0.031007584	0.87888019	0.2058118	-0.094371338	0.91284943	-0.022607038	0.042982655	0.85487964	-0.20273451	0.14959196	0.79353796	-0.15286876	0.41543289	1.0769354	-0.0074017677	0.38359888	1.1759269	0.12331351	0.37563986	1.1842495	-0.1485056	0.38132056	0.98639166	-0.028407366	0.39115848	1.0406489	-0.12346048	0.33343137	0.48218286	0.069506485	0.32663513	0.50336063	0.20372878	0.30392313	0.65315137	0.12375851	0.25453427	0.098764694	0.10287686	0.19786455	0.088974319	0.19302449	0.26822766	0.30718167	0.21426666	0.15412752	0.044190464	0.14810315
2831	14.73	0.37618539	0.048672543	0.1398912	0.14288504	0.81857159	0.15796783	0.033865089	0.88298505	0.20604538	-0.091553116	0.91739563	-0.022290569	0.045310528	0.85913977	-0.20261638	0.15167607	0.79732385	-0.1529108	0.41732779	1.0826932	-0.0076000142	0.38534122	1.1815542	0.12315089	0.37707199	1.1899183	-0.14868132	0.38356091	0.99207593	-0.028587662	0.39304422	1.0463417	-0.12362831	0.33286224	0.48227478	0.06851516	0.32674319	0.50355768	0.20268408	0.30538956	0.65361731	0.12297215	0.25427023	0.098715225	0.10267884	0.19785078	0.089022156	0.19295212	0.26817786	0.30737256	0.21372484	0.15401007	0.044164761	0.14822693
2832	14.74	0.37613773	0.048542503	0.13950679	0.14539624	0.82195276	0.15812177	0.03672575	0.88705853	0.20629161	-0.088753113	0.92190082	-0.021953995	0.047613838	0.86341345	-0.20249632	0.15375719	0.80116663	-0.15294472	0.41914017	1.0885684	-0.007799253	0.38698169	1.1872794	0.1230097	0.37838196	1.1956969	-0.14885847	0.38572766	0.99786536	-0.028766354	0.39483286	1.0521456	-0.12381945	0.33223111	0.48233383	0.067560493	0.32683136	0.5037402	0.20165965	0.30685461	0.65406476	0.12222363	0.25401044	0.098667686	0.10249784	0.19783658	0.089067192	0.19288979	0.26810696	0.30756619	0.21320963	0.1538999	0.04414304	0.14835516
2833	14.75	0.37609964	0.048409374	0.1391503	0.14789999	0.82532745	0.15827545	0.039595337	0.89109119	0.20654808	-0.085968033	0.92635083	-0.021599627	0.049898193	0.86768573	-0.20237373	0.15584413	0.80506085	-0.15295895	0.42086908	1.0945549	-0.0079980464	0.38851624	1.1930957	0.12289312	0.37957358	1.20158	-0.14903438	0.38781967	1.0037531	-0.028942717	0.39652884	1.0580558	-0.12403231	0.33158463	0.48237442	0.066652245	0.32690585	0.50390549	0.20066113	0.30832074	0.65448694	0.1215229	0.25375882	0.098623177	0.10233587	0.19782484	0.089108673	0.1928401	0.26801788	0.30776151	0.21272908	0.15380026	0.044125591	0.14848715
2834	14.76	0.37607416	0.048274128	0.1388299	0.15039832	0.82868976	0.15842653	0.042477818	0.89507501	0.20681123	-0.083196136	0.93073151	-0.021231228	0.052168274	0.8719408	-0.20224979	0.15794359	0.8089989	-0.15294615	0.42251376	1.1006467	-0.0081944227	0.38994113	1.1989962	0.12280354	0.38065027	1.2075608	-0.14920618	0.38984137	1.009733	-0.02911537	0.39813782	1.0640676	-0.1242636	0.33097009	0.48241269	0.065799126	0.32697116	0.50405347	0.19969618	0.30979291	0.65487805	0.12087835	0.25351852	0.098582756	0.10219331	0.19781834	0.089146049	0.19280443	0.26791556	0.30795593	0.21229065	0.15371404	0.044112659	0.14862181
2835	14.77	0.37606326	0.048137596	0.13855023	0.15289272	0.83203809	0.15857152	0.045375416	0.89900391	0.20707613	-0.080437225	0.93502997	-0.020853739	0.054427959	0.87616168	-0.20212924	0.16006068	0.8129696	-0.15290457	0.42407346	1.106838	-0.0083861837	0.39125308	1.2049751	0.12274212	0.38161401	1.2136332	-0.14937126	0.39180051	1.0157999	-0.02928253	0.39966589	1.0701771	-0.12450882	0.33041843	0.48245767	0.065008347	0.3270303	0.50418799	0.19877539	0.31127853	0.65523499	0.12029649	0.25329259	0.098547279	0.10206952	0.19781902	0.089178825	0.19278305	0.2678074	0.30814551	0.21189952	0.15364291	0.044104301	0.14875798
2836	14.78	0.37606729	0.048000816	0.13831247	0.15538585	0.83537604	0.15870575	0.048288448	0.9028736	0.20733664	-0.077692055	0.93923492	-0.020472692	0.056680412	0.8803324	-0.20201927	0.16219975	0.81695898	-0.15283794	0.42554715	1.1131229	-0.0085712967	0.39244934	1.2110269	0.12270874	0.3824649	1.2197909	-0.1495275	0.39370569	1.0219489	-0.029442205	0.4011189	1.0763796	-0.1247633	0.32994464	0.48251157	0.064285126	0.32708524	0.50431491	0.19791322	0.31278516	0.65555713	0.11978218	0.25308472	0.098516937	0.10196416	0.19782751	0.089206558	0.1927758	0.26770334	0.30832498	0.21155653	0.15358684	0.044100063	0.1488945
